<?xml version="1.0" standalone="no"?>
<!DOCTYPE svg PUBLIC "-//W3C//DTD SVG 20010904//EN"
 "http://www.w3.org/TR/2001/REC-SVG-20010904/DTD/svg10.dtd">
<svg version="1.0" xmlns="http://www.w3.org/2000/svg"
 width="512.000000pt" height="512.000000pt" viewBox="0 0 512.000000 512.000000"
 preserveAspectRatio="xMidYMid meet">
<metadata>
Created by potrace 1.11, written by Peter Selinger 2001-2013
</metadata>
<g transform="translate(0.000000,512.000000) scale(0.100000,-0.100000)"
fill="#000000" stroke="none">
<path d="M2001 4561 c-164 -61 -308 -278 -360 -541 -19 -100 -22 -114 -27
-190 -3 -41 -9 -78 -13 -82 -3 -4 -42 -10 -86 -13 -233 -17 -389 -99 -471
-250 -39 -70 -45 -185 -16 -282 24 -78 78 -170 140 -240 23 -26 42 -52 40 -58
-1 -5 -18 -22 -37 -36 -199 -145 -234 -363 -88 -537 33 -39 40 -72 16 -72 -17
0 -99 -122 -119 -179 -14 -38 -27 -57 -38 -57 -178 -4 -313 -105 -367 -271
-16 -49 -20 -54 -58 -64 -156 -42 -285 -184 -318 -348 -10 -52 -15 -60 -56
-86 -103 -65 -138 -113 -142 -198 -5 -95 70 -189 162 -202 38 -5 383 -12 838
-16 97 -1 181 -4 186 -8 5 -3 22 -32 36 -64 28 -62 74 -126 117 -165 56 -50
83 -53 401 -50 l296 3 41 28 c23 15 59 50 79 78 l38 50 15 -23 c33 -51 83 -97
125 -117 42 -20 61 -21 333 -21 l288 0 50 25 c75 39 155 152 190 270 23 79 23
221 -1 296 l-17 55 35 70 c78 154 89 221 91 536 1 147 4 269 6 271 3 3 37 8
75 11 39 4 88 9 110 11 114 13 143 16 180 21 22 2 56 6 75 9 63 8 114 14 165
20 54 6 87 10 153 19 23 3 59 8 80 11 64 8 416 56 442 60 14 2 56 9 94 15 124
20 157 48 217 185 12 28 31 70 42 95 11 25 20 48 19 52 -1 3 5 12 13 18 8 7
15 17 15 22 0 9 7 26 41 103 5 11 25 70 46 130 32 95 37 123 37 205 1 77 -3
101 -18 125 -33 50 -69 86 -111 108 -39 22 -48 22 -535 23 -378 1 -998 10
-1167 17 -7 0 -32 39 -54 86 -101 207 -239 329 -481 425 -26 10 -38 21 -38 34
0 27 -63 201 -102 281 -61 125 -105 188 -199 281 -91 90 -174 130 -277 136
-60 4 -89 0 -131 -15z"/>
</g>
</svg>
